<?xml version="1.0" encoding="UTF-8" standalone="no"?>
<svg
   xmlns:dc="http://purl.org/dc/elements/1.1/"
   xmlns:cc="http://creativecommons.org/ns#"
   xmlns:rdf="http://www.w3.org/1999/02/22-rdf-syntax-ns#"
   xmlns:svg="http://www.w3.org/2000/svg"
   xmlns="http://www.w3.org/2000/svg"
   xmlns:sodipodi="http://sodipodi.sourceforge.net/DTD/sodipodi-0.dtd"
   xmlns:inkscape="http://www.inkscape.org/namespaces/inkscape"
   width="1024"
   height="1024"
   viewBox="0 0 270.93333 270.93334"
   version="1.1"
   id="svg8"
   inkscape:version="1.0.2-2 (e86c870879, 2021-01-15)"
   sodipodi:docname="Logo.svg"
   inkscape:export-filename="B:\Projekte\Github\meeting-timekeeper\Documentation\Logo.png"
   inkscape:export-xdpi="24"
   inkscape:export-ydpi="24">
  <defs
     id="defs2" />
  <sodipodi:namedview
     id="base"
     pagecolor="#ffffff"
     bordercolor="#666666"
     borderopacity="1.0"
     inkscape:pageopacity="0.0"
     inkscape:pageshadow="2"
     inkscape:zoom="0.98994949"
     inkscape:cx="638.96207"
     inkscape:cy="578.81326"
     inkscape:document-units="px"
     inkscape:current-layer="layer1"
     inkscape:document-rotation="0"
     showgrid="false"
     inkscape:snap-center="false"
     showguides="true"
     inkscape:guide-bbox="true"
     inkscape:snap-grids="false"
     inkscape:window-width="2560"
     inkscape:window-height="1377"
     inkscape:window-x="-8"
     inkscape:window-y="-8"
     inkscape:window-maximized="1"
     units="px" />
  <metadata
     id="metadata5">
    <rdf:RDF>
      <cc:Work
         rdf:about="">
        <dc:format>image/svg+xml</dc:format>
        <dc:type
           rdf:resource="http://purl.org/dc/dcmitype/StillImage" />
        <dc:title></dc:title>
      </cc:Work>
    </rdf:RDF>
  </metadata>
  <g
     inkscape:label="Layer 1"
     inkscape:groupmode="layer"
     id="layer1">
    <path
       id="path847-0"
       style="fill:#ffffff;stroke:none;stroke-width:15.1181;stroke-linecap:round;stroke-linejoin:round;stroke-miterlimit:4;stroke-dasharray:none;stroke-opacity:1"
       inkscape:label="Hintergrund"
       d="M 567.98828,13.742188 C 430.65833,14.372447 294.95525,71.567912 197.71875,180.69141 31.768462,366.92885 28.89042,647.14789 190.98047,836.75586 c 162.09006,189.60794 439.30465,230.29754 649.02734,95.26367 34.54311,-36.00087 45.66014,-69.93144 32.40235,-121.27734 -8.56203,-33.1598 -14.39432,-46.55998 28.41015,-61.82031 44.32453,-15.80225 19.18703,-107.47349 -41.89648,-108.63282 -8.87297,-0.16841 -13.98525,-4.59525 -15.79883,-11.83203 l 0.16016,-15.48437 c 3.14177,-16.39155 14.31861,-37.97872 31.57617,-58.52344 21.68651,-25.81731 48.62582,-20.50217 51.49414,-87.06445 1.96947,-45.70383 -30.76388,-35.69288 -34.32813,-87.06641 -2.41719,-34.84053 51.49044,-36.13627 78.82618,-68.67188 C 1035.2397,235.0127 895.19278,170.26035 848.55273,99.966797 l 0.0117,-1.183594 c -0.45447,-0.306007 -0.91203,-0.603878 -1.36718,-0.908203 -0.17553,-0.276097 -0.36262,-0.551851 -0.53516,-0.828125 l -0.004,0.46875 C 761.4422,40.696325 664.31676,13.3001 567.98828,13.742188 Z"
       transform="scale(0.26458333)" />
    <g
       id="g938"
       style="stroke-width:4.66028;stroke-miterlimit:4;stroke-dasharray:none"
       inkscape:export-xdpi="20.874048"
       inkscape:export-ydpi="20.874048"
       inkscape:label="MajorSeconds"
       transform="matrix(0.85823735,0,0,0.85839758,128.96561,5.5607931)">
      <path
         style="fill:none;stroke:#000000;stroke-width:4.66028;stroke-linecap:butt;stroke-linejoin:miter;stroke-miterlimit:4;stroke-dasharray:none;stroke-opacity:1"
         d="M 25.324405,-2.2678571 V 15.875"
         id="path893"
         inkscape:transform-center-y="-144.19792"
         inkscape:label="60s" />
      <path
         style="fill:none;stroke:#000000;stroke-width:4.66028;stroke-linecap:butt;stroke-linejoin:miter;stroke-miterlimit:4;stroke-dasharray:none;stroke-opacity:1"
         d="M 25.324405,304.27084 V 286.12798"
         id="path899"
         inkscape:transform-center-y="144.19792"
         inkscape:label="30s" />
      <path
         style="fill:none;stroke:#000000;stroke-width:4.66028;stroke-linecap:butt;stroke-linejoin:miter;stroke-miterlimit:4;stroke-dasharray:none;stroke-opacity:1"
         d="m -51.31027,283.73664 9.07143,-15.71218"
         id="path901"
         inkscape:transform-center-y="124.87906"
         inkscape:transform-center-x="72.09896"
         inkscape:label="35s" />
      <path
         style="fill:none;stroke:#000000;stroke-width:4.66028;stroke-linecap:butt;stroke-linejoin:miter;stroke-miterlimit:4;stroke-dasharray:none;stroke-opacity:1"
         d="m -107.41075,227.63616 15.712183,-9.07143"
         id="path903"
         inkscape:transform-center-y="72.098955"
         inkscape:transform-center-x="124.87906"
         inkscape:label="40s" />
      <path
         style="fill:none;stroke:#000000;stroke-width:4.66028;stroke-linecap:butt;stroke-linejoin:miter;stroke-miterlimit:4;stroke-dasharray:none;stroke-opacity:1"
         d="m -127.94495,151.00149 h 18.14287"
         id="path905"
         inkscape:transform-center-x="144.19792"
         inkscape:label="45s" />
      <path
         style="fill:none;stroke:#000000;stroke-width:4.66028;stroke-linecap:butt;stroke-linejoin:miter;stroke-miterlimit:4;stroke-dasharray:none;stroke-opacity:1"
         d="m -107.41075,74.366812 15.712186,9.071436"
         id="path907"
         inkscape:transform-center-x="124.87906"
         inkscape:transform-center-y="-72.09896"
         inkscape:label="50s" />
      <path
         style="fill:none;stroke:#000000;stroke-width:4.66028;stroke-linecap:butt;stroke-linejoin:miter;stroke-miterlimit:4;stroke-dasharray:none;stroke-opacity:1"
         d="m -51.310272,18.266336 9.071434,15.712187"
         id="path909"
         inkscape:transform-center-x="72.098958"
         inkscape:transform-center-y="-124.87906"
         inkscape:label="55s" />
      <path
         style="fill:none;stroke:#000000;stroke-width:4.66028;stroke-linecap:round;stroke-linejoin:round;stroke-miterlimit:4;stroke-dasharray:none;stroke-opacity:1"
         id="path877-3"
         sodipodi:type="arc"
         sodipodi:cx="25.4699"
         sodipodi:cy="151.51524"
         sodipodi:rx="153.75443"
         sodipodi:ry="153.75443"
         sodipodi:start="0.99882847"
         sodipodi:end="5.3049016"
         sodipodi:arc-type="arc"
         sodipodi:open="true"
         inkscape:label="Stoppuhr"
         d="M 108.69529,280.79772 A 153.75443,153.75443 0 0 1 -91.391131,251.43482 153.75443,153.75443 0 0 1 -89.313789,49.216036 153.75443,153.75443 0 0 1 111.33361,23.969777" />
    </g>
    <path
       style="fill:#b3b3b3;stroke:none;stroke-width:2;stroke-linecap:round;stroke-linejoin:round;stroke-miterlimit:4;stroke-dasharray:none;stroke-opacity:1"
       d="m 214.07309,90.084353 c 7.76865,-12.189043 19.96226,-8.887776 31.19578,-8.947519 9.92142,3.142308 -35.36055,17.899404 -31.19578,8.947519 z"
       id="path867"
       sodipodi:nodetypes="ccc"
       inkscape:label="Nasenloch"
       inkscape:export-xdpi="20.874048"
       inkscape:export-ydpi="20.874048" />
    <path
       style="opacity:1;fill:#aa0000;stroke:#aa0000;stroke-width:2.02;stroke-linecap:round;stroke-linejoin:round;stroke-miterlimit:4;stroke-dasharray:none;stroke-opacity:1"
       d="m 223.88831,175.01214 c -2.24896,-0.11296 -8.78445,-1.02245 -12.96001,-1.80349 -6.61917,-1.23814 -12.18071,-2.79129 -18.51958,-5.17185 -1.17105,-0.43983 -1.51115,-0.48712 -1.87382,-0.26057 -0.45178,0.28221 -0.66006,0.20911 -5.56555,-1.95282 -4.61069,-2.03202 -5.40337,-7.03215 -1.70149,-10.73292 1.56335,-1.56288 4.3396,-3.09357 4.79137,-2.64172 0.13868,0.13869 0.47432,0.25218 0.74591,0.25218 0.43081,0 7.85726,-2.92697 13.62911,-5.37159 2.21551,-0.93837 2.247,-0.94319 3.13473,-0.48013 0.48169,0.25126 1.43444,0.34311 3.57033,0.34414 3.31808,0.002 4.83216,-0.2547 5.92379,-1.00285 l 0.76143,-0.52184 1.62339,0.62786 c 0.89287,0.34533 2.27203,0.75445 3.06479,0.90916 1.86497,0.36392 5.06395,0.16313 6.71356,-0.42138 1.21866,-0.43182 1.30658,-0.43418 2.04048,-0.0547 0.48531,0.251 0.66918,0.4571 0.50072,0.56125 -0.439,0.27137 -3.43068,4.70208 -4.5153,6.6872 -3.35443,6.13945 -4.22836,11.52787 -2.32745,14.35056 0.74972,1.11326 2.20581,1.84126 3.96532,1.98251 l 1.4716,0.11817 0.26684,0.89078 c 0.23083,0.77054 0.21401,0.92942 -0.12453,1.17702 -0.21526,0.15743 -0.42688,0.59415 -0.47028,0.97053 -0.0434,0.37635 -0.0906,0.75067 -0.10504,0.83183 -0.0759,0.42774 -2.21156,0.8044 -4.04032,0.71254 z"
       id="path865"
       inkscape:label="Mund"
       inkscape:export-xdpi="20.874048"
       inkscape:export-ydpi="20.874048" />
    <path
       style="opacity:1;fill:#ff0000;stroke:none;stroke-width:0.264583px;stroke-linecap:butt;stroke-linejoin:miter;stroke-opacity:1"
       d="m 231.96478,144.91657 c 0.23136,-2.92014 -0.067,-5.33223 -1.23292,-9.0909 -5.16106,-4.63126 -27.46263,11.8613 -41.89065,15.97361 -9.84295,2.80546 -9.74867,11.24176 -4.7023,13.76541 13.90793,6.95526 50.56337,16.76575 44.15579,4.58847 9.4778,-0.30851 19.27101,10.82178 14.68036,24.26153 -1.73227,2.86552 -6.3214,4.59451 -10.83823,6.88271 0,0 -6.13594,1.9501 -14.79507,-3.15457 -14.93343,-8.80348 -29.95287,-17.08603 -38.0117,-33.79245 -2.08724,-4.32698 -1.81795,-10.27379 3.08849,-13.92765 l 42.20605,-31.43101 c 6.09292,-4.53741 15.63034,1.40341 19.14607,-1.24659 1.49967,-1.13039 0.92474,3.3114 0.92474,3.3114 2.13923,12.11244 -5.04638,19.76029 -12.73063,23.86004 z"
       id="path859"
       sodipodi:nodetypes="ccsscccssssscc"
       inkscape:label="Lippen"
       inkscape:export-xdpi="20.874048"
       inkscape:export-ydpi="20.874048" />
    <path
       style="fill:#ffffff;stroke:none;stroke-width:0.264583px;stroke-linecap:butt;stroke-linejoin:miter;stroke-opacity:1"
       d="m 204.54925,145.9682 c 0.78537,0.90933 2.14189,1.4378 4.8659,1.05446 2.4876,0.19042 4.77823,-0.0132 6.40678,-1.54114 3.93617,1.92923 8.0687,2.68013 12.65133,0.73001 l 2.18967,1.13559 1.30185,-2.43055 c 0.28407,-3.0303 0.39787,-6.06061 -1.23292,-9.0909 -9.10386,-1.70056 -17.46653,6.607 -26.18261,10.14253 z"
       id="path861"
       sodipodi:nodetypes="cccccccc"
       inkscape:label="Zähne"
       inkscape:export-xdpi="20.874048"
       inkscape:export-ydpi="20.874048" />
    <g
       id="g875"
       inkscape:label="Profil"
       style="stroke-width:4.66028;stroke-miterlimit:4;stroke-dasharray:none"
       inkscape:export-xdpi="20.874048"
       inkscape:export-ydpi="20.874048"
       transform="matrix(0.85823735,0,0,0.85839758,128.96561,5.5607931)">
      <path
         style="fill:none;stroke:#000000;stroke-width:4.66028;stroke-linecap:round;stroke-linejoin:round;stroke-miterlimit:4;stroke-dasharray:none;stroke-opacity:1"
         d="m 110.74702,23.434527 c 13.75173,22.01526 58.41033,42.19825 38.2863,66.14583 -8.42725,10.02843 -25.04637,10.427793 -24.30118,21.166673 1.09881,15.83483 11.1905,12.74905 10.58334,26.83631 -0.88427,20.51645 -9.18933,18.87865 -15.875,26.83631 -10.5131,12.51325 -13.72441,26.29114 -4.91369,26.45833 18.83125,0.35734 26.58071,28.6126 12.91604,33.48332 -13.19605,4.70368 -11.39787,8.83454 -8.75831,19.05537 4.0872,15.82631 2.33372,25.18919 -8.31547,36.28571"
         id="path847"
         sodipodi:nodetypes="csssssssc" />
      <path
         style="fill:none;stroke:#000000;stroke-width:4.66028;stroke-linecap:round;stroke-linejoin:round;stroke-miterlimit:4;stroke-dasharray:none;stroke-opacity:1"
         d="m 87.405563,78.421467 c -8.176206,17.57492 -7.830944,29.745983 13.096207,28.865113"
         id="path849"
         sodipodi:nodetypes="cc" />
      <path
         style="fill:none;stroke:#000000;stroke-width:4.66028;stroke-linecap:round;stroke-linejoin:round;stroke-miterlimit:4;stroke-dasharray:none;stroke-opacity:1"
         d="m 135.51408,88.043167 c -13.08906,0.0696 -27.2968,-3.77625 -36.348659,10.42351"
         id="path851"
         sodipodi:nodetypes="cc" />
      <path
         style="fill:none;stroke:#000000;stroke-width:4.66028;stroke-linecap:round;stroke-linejoin:round;stroke-miterlimit:4;stroke-dasharray:none;stroke-opacity:1"
         d="m 125.89237,131.07357 c -4.72176,-2.39003 -9.77532,-2.93391 -14.16528,0.8018 -18.615604,15.84124 -34.860077,23.95129 -52.652098,40.09043 -3.709876,3.36522 -1.732885,11.4004 2.405426,17.90707 9.034596,14.20509 28.564821,29.84829 49.712132,37.685"
         id="path853"
         sodipodi:nodetypes="csssc" />
      <path
         style="fill:none;stroke:#000000;stroke-width:4.66028;stroke-linecap:round;stroke-linejoin:round;stroke-miterlimit:4;stroke-dasharray:none;stroke-opacity:1"
         d="m 118.57587,151.75355 c -1.71559,-0.78238 -6.1654,-1.32828 -12.19417,1.77066 -12.708187,7.62417 -24.585228,11.92376 -36.615926,16.83798"
         id="path855"
         sodipodi:nodetypes="ccc" />
      <path
         style="fill:none;stroke:#000000;stroke-width:4.66028;stroke-linecap:round;stroke-linejoin:round;stroke-miterlimit:4;stroke-dasharray:none;stroke-opacity:1"
         d="m 116.53794,195.48552 c 0.23583,2.10777 -0.92165,3.65821 -7.75082,2.93997 -12.407549,-1.3942 -24.649054,-3.61864 -36.348651,-8.55262"
         id="path857"
         sodipodi:nodetypes="ccc" />
    </g>
    <path
       id="rect911"
       style="opacity:1;fill:#ff0000;stroke:#ff0000;stroke-width:2;stroke-linecap:round;stroke-linejoin:round;stroke-miterlimit:4;stroke-dasharray:none;stroke-opacity:1"
       d="m 147.10562,141.05013 c 2.77443,1.64624 6.31986,1.14385 8.5279,-1.20843 l 4.53563,2.85152 -0.72348,1.21967 12.5578,7.4517 2.94411,-4.9633 -12.5578,-7.45173 -0.72347,1.21966 -4.52646,-2.84611 c 1.03344,-3.07594 -0.22156,-6.45601 -3.01183,-8.11171 -2.79025,-1.65574 -6.35773,-1.1373 -8.56149,1.24419 L 71.919416,86.753796 70.42224,89.27781 l 73.65627,43.70722 c -1.00576,3.0657 0.25275,6.41873 3.02711,8.0651 z m 1.59792,-2.653 -3.9e-4,-2.3e-4 c -0.005,-0.004 -0.0116,-0.006 -0.0174,-0.0108 -1.30192,-0.7727 -2.01823,-2.24703 -1.82116,-3.7483 0.003,-0.0224 0.005,-0.0449 0.009,-0.0672 4.6e-4,-0.004 8.6e-4,-0.006 0.002,-0.0103 0.002,-0.0103 0.004,-0.0205 0.005,-0.0307 0.003,-0.0155 0.005,-0.0309 0.007,-0.0463 0.004,-0.0256 0.009,-0.0513 0.0141,-0.0768 0.0103,-0.051 0.021,-0.10169 0.0331,-0.15216 0.005,-0.0207 0.009,-0.0413 0.0149,-0.0618 8.6e-4,-0.004 0.003,-0.009 0.004,-0.0138 0.003,-0.0103 0.005,-0.02 0.007,-0.03 0.004,-0.0152 0.008,-0.0304 0.0126,-0.0456 l 8.7e-4,-0.005 c 0.004,-0.0156 0.009,-0.0311 0.0136,-0.0466 0.005,-0.0165 0.009,-0.033 0.0149,-0.0495 l 8.6e-4,-0.004 c 0.004,-0.0149 0.009,-0.03 0.0142,-0.0447 8.6e-4,-0.004 0.003,-0.007 0.004,-0.0117 0.006,-0.0208 0.014,-0.0414 0.0215,-0.062 0.008,-0.0246 0.0174,-0.049 0.0265,-0.0735 0.008,-0.0232 0.0173,-0.0463 0.0262,-0.0694 l 0.002,-0.004 0.002,-0.004 c 0.006,-0.0166 0.0134,-0.0333 0.0203,-0.0498 0.003,-0.005 0.005,-0.0125 0.007,-0.0188 0.004,-0.009 0.007,-0.0189 0.0122,-0.0283 0.005,-0.0145 0.0124,-0.0288 0.0188,-0.043 0.004,-0.009 0.008,-0.0187 0.0125,-0.0281 0.003,-0.005 0.005,-0.0121 0.008,-0.0181 0.007,-0.0165 0.0153,-0.0329 0.0229,-0.0493 l 8.6e-4,-0.004 c 0.006,-0.0143 0.0136,-0.0284 0.0206,-0.0425 0.002,-0.004 0.004,-0.007 0.005,-0.0119 0.009,-0.0193 0.0195,-0.0387 0.0297,-0.0578 0.0103,-0.0186 0.0197,-0.037 0.0299,-0.0556 0.003,-0.004 0.004,-0.008 0.006,-0.013 0.005,-0.009 0.0103,-0.0182 0.0151,-0.0272 0.007,-0.0136 0.0155,-0.0273 0.0232,-0.0408 0.005,-0.009 0.0103,-0.0177 0.0153,-0.0265 0.004,-0.005 0.006,-0.0119 0.0106,-0.018 0.11941,-0.20133 0.25722,-0.39116 0.41167,-0.56705 0.0343,-0.0391 0.0695,-0.0773 0.10529,-0.11495 0.0359,-0.0376 0.0725,-0.0745 0.10998,-0.11061 0.0374,-0.0361 0.0755,-0.0714 0.11441,-0.10595 0.0776,-0.0689 0.15804,-0.13457 0.24105,-0.19685 1.2257,-0.92069 2.88561,-1.011 4.20394,-0.22872 1.3183,0.7823 2.03466,2.28267 1.81425,3.7999 -0.004,0.0245 -0.007,0.049 -0.0117,0.0735 -5.6e-4,0.003 -8.6e-4,0.005 -0.002,0.009 -0.004,0.0239 -0.007,0.0477 -0.0125,0.0715 -0.005,0.0254 -0.009,0.051 -0.0148,0.0763 -0.005,0.0253 -0.0111,0.0508 -0.0168,0.0761 -0.004,0.0183 -0.008,0.0368 -0.0131,0.055 l -8.6e-4,0.005 c -0.005,0.0218 -0.0112,0.0435 -0.017,0.0652 l -0.002,0.006 c -0.005,0.02 -0.0109,0.04 -0.0165,0.0599 -0.002,0.005 -0.004,0.0114 -0.005,0.0171 -0.006,0.023 -0.0135,0.0458 -0.0207,0.0687 l -8.6e-4,0.004 c -0.005,0.0165 -0.0104,0.0329 -0.0158,0.0493 -0.004,0.011 -0.007,0.0218 -0.0112,0.0326 -0.005,0.0144 -0.009,0.0287 -0.0147,0.0429 -0.004,0.0103 -0.007,0.0207 -0.0112,0.031 -0.003,0.006 -0.005,0.0146 -0.007,0.0218 -0.007,0.0205 -0.0156,0.0409 -0.0236,0.0613 -0.006,0.0179 -0.0136,0.0357 -0.0207,0.0533 -0.002,0.004 -0.004,0.006 -0.004,0.0103 -0.005,0.0155 -0.0127,0.0309 -0.0192,0.0463 -0.004,0.007 -0.006,0.0154 -0.0103,0.023 -0.004,0.0108 -0.009,0.0217 -0.014,0.0324 -0.005,0.0142 -0.0125,0.0283 -0.019,0.0424 -0.005,0.0106 -0.0103,0.0212 -0.0152,0.0317 -0.005,0.0137 -0.0128,0.0275 -0.0192,0.0411 -0.003,0.005 -0.005,0.0112 -0.008,0.0169 -0.008,0.0175 -0.0172,0.0348 -0.0258,0.0522 -0.004,0.008 -0.009,0.0167 -0.0134,0.0251 -0.006,0.0141 -0.0146,0.0281 -0.0218,0.0422 -0.005,0.0113 -0.0124,0.0226 -0.0185,0.0339 -0.006,0.0121 -0.013,0.024 -0.0196,0.036 -0.004,0.006 -0.007,0.0129 -0.0115,0.0193 -0.0103,0.0182 -0.0206,0.0362 -0.0311,0.0543 -0.0133,0.0224 -0.0268,0.0446 -0.0405,0.0666 -0.0686,0.11039 -0.14273,0.21717 -0.22227,0.31993 -0.0319,0.0411 -0.0646,0.0814 -0.0982,0.12122 -0.15075,0.17893 -0.31777,0.34348 -0.49891,0.49157 -0.0536,0.0438 -0.10846,0.086 -0.16442,0.12679 -1.21676,0.88812 -2.84426,0.97003 -4.14401,0.20856 z"
       inkscape:transform-center-x="23.027496"
       inkscape:label="Zeiger"
       inkscape:transform-center-y="-13.24138"
       sodipodi:nodetypes="ccccccccccccccccscsccccccssccccccscccccccccccccccccccscccsssccccccccsccccccccccccccccccscccccccccccccccccc"
       inkscape:export-xdpi="20.874048"
       inkscape:export-ydpi="20.874048" />
    <g
       id="g1054"
       inkscape:label="Seconds Text"
       transform="matrix(0.85823735,0,0,0.85839758,128.96561,5.5607931)"
       style="stroke-width:1.16507">
      <text
         xml:space="preserve"
         style="font-style:normal;font-weight:normal;font-size:14.1111px;line-height:1.15;font-family:sans-serif;fill:#000000;fill-opacity:1;stroke:none;stroke-width:0.308258"
         x="16.570688"
         y="33.141418"
         id="text942"
         inkscape:label="60"><tspan
           sodipodi:role="line"
           id="tspan940"
           x="16.570688"
           y="33.141418"
           style="font-style:normal;font-variant:normal;font-weight:bold;font-stretch:normal;font-size:14.1111px;font-family:sans-serif;-inkscape-font-specification:'sans-serif Bold';stroke-width:0.308258">60</tspan></text>
      <text
         xml:space="preserve"
         style="font-style:normal;font-weight:normal;font-size:14.1111px;line-height:1.15;font-family:sans-serif;fill:#000000;fill-opacity:1;stroke:none;stroke-width:0.308258"
         x="16.570688"
         y="278.76212"
         id="text946"
         inkscape:label="30"><tspan
           sodipodi:role="line"
           id="tspan944"
           x="16.570688"
           y="278.76212"
           style="font-style:normal;font-variant:normal;font-weight:bold;font-stretch:normal;font-size:14.1111px;font-family:sans-serif;-inkscape-font-specification:'sans-serif Bold';stroke-width:0.308258">30</tspan></text>
      <text
         xml:space="preserve"
         style="font-style:normal;font-weight:normal;font-size:14.1111px;line-height:1.15;font-family:sans-serif;fill:#000000;fill-opacity:1;stroke:none;stroke-width:0.308258"
         x="-105.03695"
         y="156.0854"
         id="text950"
         inkscape:label="45"><tspan
           sodipodi:role="line"
           id="tspan948"
           x="-105.03695"
           y="156.0854"
           style="font-style:normal;font-variant:normal;font-weight:bold;font-stretch:normal;font-size:14.1111px;font-family:sans-serif;-inkscape-font-specification:'sans-serif Bold';stroke-width:0.308258">45</tspan></text>
      <text
         xml:space="preserve"
         style="font-style:normal;font-weight:normal;font-size:14.1111px;line-height:1.15;font-family:sans-serif;fill:#000000;fill-opacity:1;stroke:none;stroke-width:0.308258"
         x="-87.397163"
         y="218.09193"
         id="text954"
         inkscape:label="40"><tspan
           sodipodi:role="line"
           id="tspan952"
           x="-87.397163"
           y="218.09193"
           style="font-style:normal;font-variant:normal;font-weight:bold;font-stretch:normal;font-size:14.1111px;font-family:sans-serif;-inkscape-font-specification:'sans-serif Bold';stroke-width:0.308258">40</tspan></text>
      <text
         xml:space="preserve"
         style="font-style:normal;font-weight:normal;font-size:14.1111px;line-height:1.15;font-family:sans-serif;fill:#000000;fill-opacity:1;stroke:none;stroke-width:0.308258"
         x="-46.772194"
         y="263.79501"
         id="text958"
         inkscape:label="35"><tspan
           sodipodi:role="line"
           id="tspan956"
           x="-46.772194"
           y="263.79501"
           style="font-style:normal;font-variant:normal;font-weight:bold;font-stretch:normal;font-size:14.1111px;font-family:sans-serif;-inkscape-font-specification:'sans-serif Bold';stroke-width:0.308258">35</tspan></text>
      <text
         xml:space="preserve"
         style="font-style:normal;font-weight:normal;font-size:14.1111px;line-height:1.15;font-family:sans-serif;fill:#000000;fill-opacity:1;stroke:none;stroke-width:0.308258"
         x="-89.802589"
         y="94.880684"
         id="text962"
         inkscape:label="50"><tspan
           sodipodi:role="line"
           id="tspan960"
           x="-89.802589"
           y="94.880684"
           style="font-style:normal;font-variant:normal;font-weight:bold;font-stretch:normal;font-size:14.1111px;font-family:sans-serif;-inkscape-font-specification:'sans-serif Bold';stroke-width:0.308258">50</tspan></text>
      <text
         xml:space="preserve"
         style="font-style:normal;font-weight:normal;font-size:14.1111px;line-height:1.15;font-family:sans-serif;fill:#000000;fill-opacity:1;stroke:none;stroke-width:0.308258"
         x="-45.168579"
         y="49.177593"
         id="text966"
         inkscape:label="55"><tspan
           sodipodi:role="line"
           id="tspan964"
           x="-45.168579"
           y="49.177593"
           style="font-style:normal;font-variant:normal;font-weight:bold;font-stretch:normal;font-size:14.1111px;font-family:sans-serif;-inkscape-font-specification:'sans-serif Bold';stroke-width:0.308258">55</tspan></text>
    </g>
    <g
       id="g1104"
       inkscape:label="MinorSeconds"
       transform="matrix(0.85823735,0,0,0.85839758,128.96561,5.5607931)"
       style="stroke-width:1.16507">
      <path
         style="fill:none;stroke:#000000;stroke-width:2.33015;stroke-linecap:butt;stroke-linejoin:miter;stroke-miterlimit:4;stroke-dasharray:none;stroke-opacity:1"
         d="M 9.3064053,303.47114 11.205306,285.42792"
         id="path972"
         inkscape:transform-center-y="144.19792"
         inkscape:label="31s" />
      <path
         style="fill:none;stroke:#000000;stroke-width:2.33015;stroke-linecap:butt;stroke-linejoin:miter;stroke-miterlimit:4;stroke-dasharray:none;stroke-opacity:1"
         d="m -64.758179,275.02884 10.666102,-14.67643"
         id="path974"
         inkscape:transform-center-y="124.87906"
         inkscape:transform-center-x="72.09896"
         inkscape:label="36s" />
      <path
         style="fill:none;stroke:#000000;stroke-width:2.33015;stroke-linecap:butt;stroke-linejoin:miter;stroke-miterlimit:4;stroke-dasharray:none;stroke-opacity:1"
         d="m -114.67885,213.3648 16.575338,-7.37711"
         id="path976"
         inkscape:transform-center-y="72.098955"
         inkscape:transform-center-x="124.87906"
         inkscape:label="41s" />
      <path
         style="fill:none;stroke:#000000;stroke-width:2.33015;stroke-linecap:butt;stroke-linejoin:miter;stroke-miterlimit:4;stroke-dasharray:none;stroke-opacity:1"
         d="m -127.07939,135.00184 18.04322,1.8989"
         id="path978"
         inkscape:transform-center-x="144.19792"
         inkscape:label="46s" />
      <path
         style="fill:none;stroke:#000000;stroke-width:2.33015;stroke-linecap:butt;stroke-linejoin:miter;stroke-miterlimit:4;stroke-dasharray:none;stroke-opacity:1"
         d="m -98.6371,60.937256 14.676439,10.666109"
         id="path980"
         inkscape:transform-center-x="124.87906"
         inkscape:transform-center-y="-72.09896"
         inkscape:label="51s" />
      <path
         style="fill:none;stroke:#000000;stroke-width:2.33015;stroke-linecap:butt;stroke-linejoin:miter;stroke-miterlimit:4;stroke-dasharray:none;stroke-opacity:1"
         d="m -36.973057,11.016591 7.377114,16.575341"
         id="path982"
         inkscape:transform-center-x="72.098958"
         inkscape:transform-center-y="-124.87906"
         inkscape:label="56s" />
      <path
         style="fill:none;stroke:#000000;stroke-width:2.33015;stroke-linecap:butt;stroke-linejoin:miter;stroke-miterlimit:4;stroke-dasharray:none;stroke-opacity:1"
         d="M -6.4977214,301.00818 -2.72578,283.26175"
         id="path990"
         inkscape:transform-center-y="144.19792"
         inkscape:label="32s" />
      <path
         style="fill:none;stroke:#000000;stroke-width:2.33015;stroke-linecap:butt;stroke-linejoin:miter;stroke-miterlimit:4;stroke-dasharray:none;stroke-opacity:1"
         d="m -77.188792,264.99014 12.139813,-13.48289"
         id="path992"
         inkscape:transform-center-y="124.87906"
         inkscape:transform-center-x="72.09896"
         inkscape:label="37s" />
      <path
         style="fill:none;stroke:#000000;stroke-width:2.33015;stroke-linecap:butt;stroke-linejoin:miter;stroke-miterlimit:4;stroke-dasharray:none;stroke-opacity:1"
         d="m -120.40004,198.45206 17.25484,-5.60661"
         id="path994"
         inkscape:transform-center-y="72.098955"
         inkscape:transform-center-x="124.87906"
         inkscape:label="42s" />
      <path
         style="fill:none;stroke:#000000;stroke-width:2.33015;stroke-linecap:butt;stroke-linejoin:miter;stroke-miterlimit:4;stroke-dasharray:none;stroke-opacity:1"
         d="m -124.55304,119.22279 17.74644,3.77194"
         id="path996"
         inkscape:transform-center-x="144.19792"
         inkscape:label="47s" />
      <path
         style="fill:none;stroke:#000000;stroke-width:2.33015;stroke-linecap:butt;stroke-linejoin:miter;stroke-miterlimit:4;stroke-dasharray:none;stroke-opacity:1"
         d="M -88.534996,48.531712 -75.0521,60.671532"
         id="path998"
         inkscape:transform-center-x="124.87906"
         inkscape:transform-center-y="-72.09896"
         inkscape:label="52s" />
      <path
         style="fill:none;stroke:#000000;stroke-width:2.33015;stroke-linecap:butt;stroke-linejoin:miter;stroke-miterlimit:4;stroke-dasharray:none;stroke-opacity:1"
         d="M -21.996921,5.3204688 -16.3903,22.57531"
         id="path1000"
         inkscape:transform-center-x="72.098958"
         inkscape:transform-center-y="-124.87906"
         inkscape:label="57s" />
      <path
         style="fill:none;stroke:#000000;stroke-width:2.33015;stroke-linecap:butt;stroke-linejoin:miter;stroke-miterlimit:4;stroke-dasharray:none;stroke-opacity:1"
         d="m -22.063931,296.87499 5.616271,-17.2517"
         id="path1008"
         inkscape:transform-center-y="144.19792"
         inkscape:label="33s" />
      <path
         style="fill:none;stroke:#000000;stroke-width:2.33015;stroke-linecap:butt;stroke-linejoin:miter;stroke-miterlimit:4;stroke-dasharray:none;stroke-opacity:1"
         d="m -88.57782,253.62652 13.48968,-12.13227"
         id="path1010"
         inkscape:transform-center-y="124.87906"
         inkscape:transform-center-x="72.09896"
         inkscape:label="38s" />
      <path
         style="fill:none;stroke:#000000;stroke-width:2.33015;stroke-linecap:butt;stroke-linejoin:miter;stroke-miterlimit:4;stroke-dasharray:none;stroke-opacity:1"
         d="m -124.55631,182.91531 17.74854,-3.76201"
         id="path1012"
         inkscape:transform-center-y="72.098955"
         inkscape:transform-center-x="124.87906"
         inkscape:label="43s" />
      <path
         style="fill:none;stroke:#000000;stroke-width:2.33015;stroke-linecap:butt;stroke-linejoin:miter;stroke-miterlimit:4;stroke-dasharray:none;stroke-opacity:1"
         d="m -120.35899,103.68837 17.2517,5.61627"
         id="path1014"
         inkscape:transform-center-x="144.19792"
         inkscape:label="48s" />
      <path
         style="fill:none;stroke:#000000;stroke-width:2.33015;stroke-linecap:butt;stroke-linejoin:miter;stroke-miterlimit:4;stroke-dasharray:none;stroke-opacity:1"
         d="m -77.110531,37.174474 12.132274,13.489688"
         id="path1016"
         inkscape:transform-center-x="124.87906"
         inkscape:transform-center-y="-72.09896"
         inkscape:label="53s" />
      <path
         style="fill:none;stroke:#000000;stroke-width:2.33015;stroke-linecap:butt;stroke-linejoin:miter;stroke-miterlimit:4;stroke-dasharray:none;stroke-opacity:1"
         d="m -6.3993194,1.195987 3.7620139,17.748549"
         id="path1018"
         inkscape:transform-center-x="72.098958"
         inkscape:transform-center-y="-124.87906"
         inkscape:label="58s" />
      <path
         style="fill:none;stroke:#000000;stroke-width:2.33015;stroke-linecap:butt;stroke-linejoin:miter;stroke-miterlimit:4;stroke-dasharray:none;stroke-opacity:1"
         d="m -37.10613,291.13011 7.397985,-16.56603"
         id="path1026"
         inkscape:transform-center-y="144.19792"
         inkscape:label="34s" />
      <path
         style="fill:none;stroke:#000000;stroke-width:2.33015;stroke-linecap:butt;stroke-linejoin:miter;stroke-miterlimit:4;stroke-dasharray:none;stroke-opacity:1"
         d="m -98.707235,241.1318 14.689857,-10.64761"
         id="path1028"
         inkscape:transform-center-y="124.87906"
         inkscape:transform-center-x="72.09896"
         inkscape:label="39s" />
      <path
         style="fill:none;stroke:#000000;stroke-width:2.33015;stroke-linecap:butt;stroke-linejoin:miter;stroke-miterlimit:4;stroke-dasharray:none;stroke-opacity:1"
         d="m -127.05621,167.03144 18.0456,-1.87617"
         id="path1030"
         inkscape:transform-center-y="72.098955"
         inkscape:transform-center-x="124.87906"
         inkscape:label="44s" />
      <path
         style="fill:none;stroke:#000000;stroke-width:2.33015;stroke-linecap:butt;stroke-linejoin:miter;stroke-miterlimit:4;stroke-dasharray:none;stroke-opacity:1"
         d="m -114.55696,88.684167 16.566036,7.397989"
         id="path1032"
         inkscape:transform-center-x="144.19792"
         inkscape:label="49s" />
      <path
         style="fill:none;stroke:#000000;stroke-width:2.33015;stroke-linecap:butt;stroke-linejoin:miter;stroke-miterlimit:4;stroke-dasharray:none;stroke-opacity:1"
         d="m -64.558649,27.08306 10.64761,14.689864"
         id="path1034"
         inkscape:transform-center-x="124.87906"
         inkscape:transform-center-y="-72.09896"
         inkscape:label="54s" />
      <path
         style="fill:none;stroke:#000000;stroke-width:2.33015;stroke-linecap:butt;stroke-linejoin:miter;stroke-miterlimit:4;stroke-dasharray:none;stroke-opacity:1"
         d="M 9.5417087,-1.2659084 11.417878,16.779693"
         id="path1036"
         inkscape:transform-center-x="72.098958"
         inkscape:transform-center-y="-124.87906"
         inkscape:label="59s" />
    </g>
  </g>
</svg>
